# xmcd
#
# Track frame offsets: 
#        150
#        10414
#        28302
#        39434
#        57600
#        74013
#        96163
#        112650
#        148740
#        161422
#        179875
#        197062
#        214965
#        229718
#
# Disc length: 3250 seconds
#
# Revision: 2
# Processed by: cddbd v1.5.2PL0 Copyright (c) Steve Scherf et al.
# Submitted via: ExactAudioCopyFreeDBPlugin 1.0
#
DISCID=d30cb00e
DTITLE=Idän Ihme - Tästä Ei Sitte Kerrota Kellekään
DYEAR=2010
DGENRE=Hip-Hop
TTITLE0=Mitalit Kaulassa
TTITLE1=Seksiä Valheita Ja Ääninauhaa (feat. Soppa)
TTITLE2=Näkyykse Päällepäin
TTITLE3=Älä Jäädy
TTITLE4=Mä Rakastuin Lutkaan
TTITLE5=Jotain Mihin Tarttua (feat. Juju and Opaali)
TTITLE6=Lossilla Vastaan (feat. Hannibal)
TTITLE7=Soita Kalevaan (Remix) (feat. Otto Martikainen, Spesialisti, S
TTITLE7=P, Leijonamieli and Henrika)
TTITLE8=Älä Kysy Miks
TTITLE9=Oikotietä
TTITLE10=Parempaa Väkee
TTITLE11=Piilokamerassa
TTITLE12=Mä Lähden Tänää (feat. Tykopaatti)
TTITLE13=Ihme Että Kinos [Unlisted Track]
EXTD=
EXTT0=
EXTT1=
EXTT2=
EXTT3=
EXTT4=
EXTT5=
EXTT6=
EXTT7=
EXTT8=
EXTT9=
EXTT10=
EXTT11=
EXTT12=
EXTT13=
PLAYORDER=
